<svg width="547" height="300" viewBox="0 0 547 300" fill="none" xmlns="http://www.w3.org/2000/svg">
<path d="M408.939 36.8892C387.42 42.6551 371.434 60.7152 368.341 82.7589L364.796 107.982C362.023 127.648 380.242 143.749 399.441 138.605L489.714 114.416L485.863 141.351L363.926 174.024C358.567 175.46 354.581 179.942 353.786 185.424L349.511 214.796L487.206 177.901C508.678 172.147 524.645 154.154 527.786 132.17L531.549 105.844C534.364 86.1622 516.134 70.0176 496.915 75.1675L406.729 99.3327L409.18 81.9995L390.139 78.347L532.409 40.2259C537.786 38.7851 541.781 34.2759 542.56 28.7723L546.63 0L408.945 36.8926L408.939 36.8892Z" fill="url(#paint0_linear_2140_4505)"/>
<path d="M55.3728 176.786L35.9059 173.253L166.893 138.156C172.26 136.717 176.252 132.219 177.039 126.724L181.156 97.9338L53.9339 132.007C32.5252 137.744 16.5796 155.649 13.3727 177.559L0.476736 268.378C-2.31499 288.053 15.9055 304.18 35.12 299.032L148.217 268.727C153.586 267.289 157.578 262.79 158.364 257.295L162.559 227.975L43.5228 259.871L55.3741 176.791L55.3728 176.786Z" fill="url(#paint1_linear_2140_4505)"/>
<path d="M359.438 13.002C359.47 13.1219 359.597 13.1956 359.718 13.1633L359.697 13.1434L374.45 9.19004C374.715 9.11915 374.984 9.27845 375.053 9.53744L375.837 12.463C375.908 12.7269 375.748 12.9958 375.489 13.0654L360.74 17.0174C360.619 17.0496 360.546 17.1773 360.578 17.2972L362.318 23.7913C362.463 24.3332 362.156 24.8575 361.618 25.0016L323.354 35.203C323.158 35.2556 323.026 35.44 323.036 35.6432L323.398 43.5087C323.399 43.822 323.351 44.1383 323.252 44.4422L322.466 46.8889C322.404 47.0803 322.423 47.2859 322.517 47.4613L329.466 60.3579C329.641 60.7017 329.512 61.1216 329.169 61.3011L316.165 68.0804C315.805 68.2696 315.41 68.144 315.22 67.7836L312.275 62.034C312.207 61.893 311.996 61.929 311.971 62.0847L310.213 74.312C310.054 75.023 309.699 75.6783 309.198 76.2083C307.296 78.209 303.342 80.9492 300.692 81.68C300.025 81.8587 299.315 81.8432 298.647 81.6725L287.627 78.8422C287.319 78.7654 287.007 78.9468 286.93 79.2553L284.371 84.1099C284.288 84.4304 284.386 84.7744 284.622 85.0042L287.826 87.3379C288.082 87.5828 288.189 87.9499 288.108 88.2956L282.27 113.522C282.197 113.845 281.959 114.109 281.645 114.224L278.326 115.416C278.071 115.505 277.965 115.801 278.099 116.032L281.911 127.281C282.103 127.61 282.363 127.89 282.677 128.104C282.992 128.318 283.355 128.503 283.709 128.63C284.203 128.805 284.64 129.11 285.013 129.483C288.296 132.788 302.142 146.745 304.375 149.026C304.793 149.452 305.4 150.059 306.129 150.787C309.822 154.479 316.624 161.279 317.576 163.321C319.117 166.631 320.299 169.835 320.17 173L312.985 224.218C312.949 224.526 312.85 224.824 312.689 225.088L308.027 233.026C307.833 233.355 307.869 233.778 308.117 234.071L312.655 238.006C313.311 238.529 314.116 238.827 314.958 238.858L328.044 239.264C328.134 239.271 328.221 239.289 328.305 239.312C328.326 239.317 328.491 239.355 328.695 239.521C328.717 239.537 328.734 239.554 328.752 239.57C328.76 239.578 328.767 239.585 328.775 239.592C328.8 239.616 328.825 239.64 328.849 239.666C328.866 239.684 328.882 239.703 328.898 239.724C328.905 239.728 328.911 239.731 328.912 239.736L328.913 239.74C329.038 239.897 329.164 240.1 329.276 240.383C329.304 240.447 329.332 240.517 329.351 240.589L329.424 240.862C329.427 240.881 329.431 240.9 329.436 240.92C329.44 240.937 329.445 240.953 329.449 240.969C329.46 241.029 329.469 241.082 329.479 241.142C329.717 242.645 328.994 244.057 328.354 245.222C328.014 245.836 327.404 246.473 326.386 247.172C326.322 247.22 326.256 247.264 326.191 247.307C324.72 248.287 322.47 249.398 319.113 250.772C318.894 250.861 318.558 250.987 318.358 251.05C317.304 251.379 315.506 251.888 315.472 251.896L315.452 251.902L289.339 258.744C288.997 258.836 288.647 258.621 288.575 258.275L287.135 246.755C286.891 245.602 287.073 244.673 287.246 243.793C287.418 242.922 287.58 242.097 287.31 241.146L287.457 224.817C287.393 224.268 287.377 223.708 287.403 223.155L286.201 200.021L291.788 178.662C291.908 178.203 291.642 177.729 291.184 177.595C290.711 177.456 290.057 177.324 289.355 177.181C287.979 176.902 286.418 176.585 285.671 176.112C281.581 173.505 271.528 164.968 269.498 163.229C268.542 162.413 267.158 161.129 265.704 159.78C263.427 157.667 260.977 155.394 259.733 154.516C259.131 154.091 258.333 154.074 257.715 154.476L256.698 155.133C256.286 155.403 256.005 155.829 255.911 156.311L248.705 199.86C248.415 201.407 247.66 203.83 247.01 205.264L221.674 258.534L222.485 260.46L224.993 274.028C225.396 275.687 224.479 277.583 223.249 277.795L203.859 282.959L202.393 281.311L201.883 280.671C201.682 280.423 201.605 280.099 201.676 279.787L205.072 266.919C205.265 266.046 204.591 262.145 204.34 261.287L202.339 259.237C202.055 258.27 202.03 256.697 202.262 255.721L210.549 210.407C211.414 206.756 213.703 201.245 215.655 198.038L220.206 192.136C220.323 191.935 220.391 191.712 220.396 191.479L219.525 181.739C219.487 181.307 219.43 180.881 219.357 180.458L215.129 156.459C214.976 155.58 215.517 154.72 216.381 154.488L219.814 153.548C220.103 153.471 220.307 153.215 220.313 152.915L222.236 135.586C222.239 135.498 222.245 135.409 222.258 135.323C222.283 135.167 222.355 135.014 222.444 134.883L225.845 129.772C225.907 129.544 225.932 129.306 225.916 129.074L226.617 118.271C226.611 118.036 226.471 117.822 226.254 117.72L218.754 115.428C218.44 115.214 218.215 114.739 218.279 114.367L220.502 85.8433C220.567 85.4711 220.877 85.0744 221.243 84.9765L227.156 83.3714C227.453 83.3072 227.684 83.0706 227.749 82.7756C227.749 82.7756 228.187 80.2269 230.912 64.9079C233.684 49.3089 241.193 42.1308 245.102 40.9137C247.186 40.2625 251.43 39.0073 251.43 39.0073C251.684 38.9391 251.861 38.712 251.862 38.4495L252.979 34.5878L248.924 33.9934C248.598 33.8545 248.349 33.5768 248.257 33.2315L245.038 23.3143C244.987 23.1273 244.825 20.981 244.866 20.7901L245.271 18.3477C245.662 16.5774 246.313 14.8764 247.239 13.3223C249.323 9.82375 253.682 4.97005 262.086 4.09057C279.363 2.28854 285.961 13.1662 286.857 14.818C286.927 14.9481 287.059 15.0312 287.207 15.048L289.764 15.2934C290.01 15.3146 290.205 15.5196 290.215 15.7689L290.428 26.5735C290.434 26.8806 290.217 27.1443 289.912 27.2002L286.391 27.7939C286.074 27.8173 285.86 28.1317 285.947 28.4373L286.567 30.2142C286.643 30.4767 286.916 30.6298 287.179 30.5593L354.31 12.5716C354.392 12.5497 354.454 12.492 354.484 12.4119C354.729 11.7246 355.044 10.8338 355.317 10.0632C355.623 9.19645 355.876 8.48163 355.914 8.37891C356.052 7.99249 356.342 7.68859 356.731 7.58441C357.403 7.40435 358.106 7.87894 358.312 8.64633C358.348 8.78641 358.424 9.07811 358.52 9.4497C358.807 10.5574 359.278 12.375 359.438 13.002Z" fill="url(#paint2_linear_2140_4505)"/>
<defs>
<linearGradient id="paint0_linear_2140_4505" x1="273.411" y1="0" x2="273.411" y2="300" gradientUnits="userSpaceOnUse">
<stop stop-color="#808080"/>
<stop offset="1" stop-color="#808080" stop-opacity="0"/>
</linearGradient>
<linearGradient id="paint1_linear_2140_4505" x1="273.411" y1="0" x2="273.411" y2="300" gradientUnits="userSpaceOnUse">
<stop stop-color="#808080"/>
<stop offset="1" stop-color="#808080" stop-opacity="0"/>
</linearGradient>
<linearGradient id="paint2_linear_2140_4505" x1="273.411" y1="0" x2="273.411" y2="300" gradientUnits="userSpaceOnUse">
<stop stop-color="#808080"/>
<stop offset="1" stop-color="#808080" stop-opacity="0"/>
</linearGradient>
</defs>
</svg>
