<svg width="314" height="300" viewBox="0 0 314 300" fill="none" xmlns="http://www.w3.org/2000/svg">
<path fillRule="evenodd" clipRule="evenodd" d="M20.2768 55.6211C13.4479 67.7558 3.48221 61.8282 3.48221 61.8282L4.89348 72.347L3.88815 72.4683L1.82816 66.7194L2.84204 66.0769L2.92829 65.016L0 65.4303L2.9457 78.3548C6.27975 81.39 5.7442 77.4564 5.7442 77.4564L7.40051 77.8278C17.2084 135.986 31.4803 158.254 31.4803 158.254C29.711 173.776 39.482 175.383 39.482 175.383L41.6761 184.95L36.7578 183.748L37.2499 186.137L39.7967 186.788L39.4709 188.062C36.7386 186.719 36.1077 187.407 36.1077 187.407C40.8696 210.148 45.7524 219.514 45.7524 219.514L50.8668 218.959L56.9535 246.09L53.1868 247.248C52.2635 250.164 54.7578 260.022 54.7578 260.022C65.8306 287.225 63.3389 297.011 63.3389 297.011L70.8974 296.171L71.686 299.666L73.4807 300C73.0714 297.367 75.4634 296.058 75.4634 296.058C77.3593 296.217 76.4917 299.341 76.4917 299.341L78.175 299.261L77.8705 295.636L78.8388 295.376L79.2566 297.488L80.8844 297.2C86.9662 292.234 88.3773 295.562 88.3773 295.562L87.943 291.453C89.5972 293.752 96.8676 291.284 96.8676 291.284C103.165 288.781 104.686 291.413 104.686 291.413L103.283 287.563L104.735 287.174C106.155 289.981 108.026 288.664 108.026 288.664C107.278 284.491 109.211 284.788 109.211 284.788C110.914 285.888 111.458 289.301 111.458 289.301L113.391 289.598C113.198 286.388 116.509 286.019 116.509 286.019L118.706 283.429L119.206 285.296L122.042 284.536L122.247 282.257C123.137 282.538 124.474 285.589 124.474 285.589L125.926 285.2L126.829 284.142L127.887 285.045C127.598 283.417 129.377 281.755 129.377 281.755L132.004 284.089L133.327 283.216L132.632 281.178C133.881 280.028 138.127 282.596 138.127 282.596L138.628 281.424L136.537 279.983L138.12 277.039C138.828 278.85 142.692 281.373 142.692 281.373C140.269 276.759 142.901 275.238 142.901 275.238C146.113 280.307 149.815 279.463 149.815 279.463C149.568 277.157 150.292 276.815 150.292 276.815C155.979 280.331 163.737 273.878 163.737 273.878L172.387 282.086C173.288 279.917 177.185 279.243 177.185 279.243L175.701 276.75C185.563 270.399 190.671 275.628 190.671 275.628L191.949 272.098L193.156 271.626L193.925 273.94C198.258 275.447 205.483 270.323 205.483 270.323L203.227 269.371C201.947 267.638 226.177 261.514 226.177 261.514C226.612 262.583 225.709 263.641 225.709 263.641L219.683 265.775C226.757 268.104 230.351 261.877 230.351 261.877L230.251 259.013L228.306 260.054C228.574 257.461 231.337 257.536 231.337 257.536L231.25 261.636C233.146 261.795 234.094 260.355 234.094 260.355L233.51 257.621L234.616 257.324L234.587 259.704C242.27 254.902 248.583 254.395 248.583 254.395C248.343 250.457 252.351 250.198 252.351 250.198C259.033 253.003 265.051 248.35 265.051 248.35C280.963 251.572 286.661 242.409 286.661 242.409C290.904 245.794 289.542 241.266 289.542 241.266L293.585 240.034L293.874 238.622L284.195 240.401C289.865 230.579 313.193 236.853 313.193 236.853L284.823 134.894C274.4 138.874 277.498 134.114 277.498 134.114C280.036 135.287 280.809 133.746 280.809 133.746C278.101 126.688 279.221 122.014 279.221 122.014C275.829 120.699 277.26 110.827 277.26 110.827C272.442 112.489 272.161 102.038 272.161 102.038C267.858 102.302 267.72 99.2996 267.72 99.2996C269.694 95.8793 266.317 98.4897 266.317 98.4897C260.521 92.6304 267.189 88.4706 267.189 88.4706L262.407 81.9688L269.632 79.8839C262.366 39.5033 251.531 18.167 251.531 18.167C254.779 15.0725 248.513 3.03791 248.513 3.03791C240.341 3.52365 240.212 0 240.212 0L233.397 1.67856L230.656 0.85654C231.964 6.28814 218.078 3.70953 218.078 3.70953C214.365 11.154 210.28 1.72257 210.28 1.72257C211.424 1.56426 206.193 1.40966 208.913 4.09048C211.634 6.7713 209.319 7.53996 209.319 7.53996C163.657 14.7394 160.78 19.2171 160.78 19.2171C164.723 20.5042 163.775 23.5835 163.17 25.5484C162.952 26.2556 162.779 26.8184 162.894 27.1015C154.488 29.2064 152.877 31.4916 152.877 31.4916C150.848 24.4743 140.578 22.1124 135.175 24.0797C129.772 26.047 125.692 24.1013 125.692 24.1013C121.821 30.4021 108.434 28.5793 108.434 28.5793C107.9 32.9479 105.223 31.8121 105.223 31.8121L100.183 32.6443L100.349 36.3063L97.8685 33.413C98.1353 39.9391 96.479 39.5676 96.479 39.5676L92.5738 40.7464C92.414 40.3308 92.0898 40.8925 92.0898 40.8925L92.5738 40.7464C92.6666 40.9877 92.704 41.5584 92.5904 42.7598C92.281 46.0304 88.3024 43.9093 88.3024 43.9093C88.3024 43.9093 77.7679 47.4745 72.2807 48.5748C66.812 49.7442 62.6887 46.2535 62.6887 46.2535L61.374 49.6452L56.1584 50.3762L55.3862 48.8782L53.1153 51.1919L41.6803 53.8866L40.8704 55.2898L38.6408 53.886L35.7681 54.5078L34.9126 56.2939L32.5532 54.4059L31.5479 54.5271L31.2656 57.3456L29.3412 56.5271L22.4707 57.9982L20.2768 55.6211ZM40.6949 101.372L118.702 149.847C118.702 149.847 123.1 148.001 125.516 151.208C127.951 154.484 124.677 151.952 124.677 151.952L122.421 151L154.023 170.994C154.023 170.994 148.843 163.562 154.787 169.974C160.713 176.318 168.453 180.025 168.453 180.025L169.032 178.313L164.272 175.215C164.272 175.215 160.722 172.757 165.082 173.812L171.504 178.688C171.504 178.688 171.325 182.443 175.806 184.503L174.359 182.148C174.359 182.148 178.004 183.024 182.148 187.696L181.453 185.658L184.836 187.494L184.119 189.243L216.612 209.518C216.612 209.518 226.217 221.843 257.198 211.314C257.198 211.314 267.089 188.203 260.658 159.237L236.008 150.796L223.539 152.953L223.121 150.841L228.187 151.484L229.814 151.196L226.524 149.706L227.379 147.92L108.798 106.541C108.798 106.541 102.597 108.574 101.761 104.35L99.1653 104.898L97.3236 103.835L96.1678 105.331L95.2031 104.774L95.745 102.924L91.2095 101.767L93.7072 103.618L92.8687 104.362L87.6944 101.375L88.366 100.009L66.1705 91.8742C66.1127 91.8351 55.2072 85.1837 40.6949 101.372ZM87.0266 197.33L149.112 231.763L117.171 252.261L114.674 251.521C114.674 251.521 114.752 253.834 112.433 253.737C112.838 253.453 113.213 252.712 113.364 251.057C113.364 251.057 112.477 249.961 112.05 251.41L111.812 252.734L111.062 250.488L109.869 251.846L108.725 252.004L109.074 254.135L84.0345 244.242C84.0345 244.242 80.7639 243.932 81.1873 236.109C81.5921 228.217 87.0266 197.33 87.0266 197.33ZM111.042 253.459C111.042 253.459 111.778 254.196 112.433 253.737C112.042 253.72 111.582 253.635 111.042 253.459ZM215.65 62.4043L219.296 96.194L217.051 96.9441L215.273 95.5674L212.922 96.1977C212.922 96.1977 212.334 91.2402 209.757 91.857C207.248 92.4553 209.007 93.7629 209.007 93.7629L211.272 94.1935L211.016 95.4484L160.991 74.7583C160.991 74.7583 183.169 62.3637 190.197 57.8852C197.225 53.4066 201.877 55.2732 201.877 55.2732L215.024 60.348L215.233 61.404L213.443 61.3648C213.443 61.3648 212.264 62.4963 213.536 64.7501C214.807 67.0039 214.688 64.0706 214.688 64.0706L214.216 62.8628L215.65 62.4043Z" fill="url(#paint0_linear_2140_4504)"/>
<defs>
<linearGradient id="paint0_linear_2140_4504" x1="156.596" y1="0" x2="156.596" y2="300" gradientUnits="userSpaceOnUse">
<stop stop-color="#808080"/>
<stop offset="1" stop-color="#808080" stop-opacity="0"/>
</linearGradient>
</defs>
</svg>
