<svg width="117" height="60" viewBox="0 0 117 60" fill="none" xmlns="http://www.w3.org/2000/svg">
<path d="M7.24163 0.0389404C7.14125 0.0571938 6.83096 0.121075 6.55718 0.175831C4.75021 0.522625 2.87935 1.75465 1.83898 3.26958C1.35529 3.98142 0.807727 5.17694 0.606952 5.94353C0.314917 7.07517 0.342295 8.79088 0.661709 9.86776C0.898988 10.6617 1.30966 11.5743 1.6382 12.0398L1.8116 12.2771L1.26403 12.3866C0.0411338 12.633 -0.296532 13.4999 0.26016 14.9784C0.533944 15.7176 0.91724 16.1374 1.31879 16.1374C1.58345 16.1374 1.66558 16.1922 1.85723 16.5024L2.09451 16.8766L2.63295 16.8127L3.18052 16.7488V17.0409C3.18052 17.4333 3.35391 17.4789 4.12963 17.2873C5.06049 17.05 6.05524 16.9679 6.72145 17.0591C7.56105 17.1778 7.7892 17.3238 7.97172 17.8714C8.14512 18.4007 8.21813 18.4646 8.65618 18.428C8.90259 18.4098 9.06685 18.4737 9.34064 18.6927C9.70568 18.9847 9.71481 18.9847 10.527 18.9391C11.5309 18.8843 12.1515 18.6653 12.7355 18.1451C13.3561 17.5976 13.8398 17.3968 14.579 17.3968C15.5464 17.3968 16.2491 17.6341 17.7914 18.4828C19.2151 19.2676 23.5135 21.2024 26.087 22.2154C27.529 22.7812 28.5146 23.0459 30.6045 23.4383C33.1872 23.922 33.4883 24.0315 34.9668 25.0171C35.4687 25.3456 37.3669 26.5138 39.2013 27.6089C41.0265 28.704 42.7331 29.7809 42.9886 30.0091C43.3719 30.3559 43.454 30.4928 43.527 30.8669C43.6639 31.597 43.8282 31.7157 45.7356 32.464C48.0262 33.3584 49.2765 33.9516 49.2309 34.1067C49.2035 34.1888 49.1031 34.6999 48.9936 35.2566C48.7015 36.7533 48.3182 37.8119 47.4239 39.5915L46.6208 41.1886L45.5987 41.5901C44.029 42.2107 42.5871 42.959 41.2911 43.826C40.6432 44.2549 40.0591 44.6108 40.0044 44.6108C39.8583 44.6108 38.9822 45.2588 37.9145 46.144C36.8011 47.0658 36.4726 47.2027 35.4869 47.1662C33.5157 47.084 33.4244 47.1023 29.6006 48.3799C24.3896 50.1413 22.902 51.0813 22.8929 52.6692C22.8929 53.3902 23.3948 54.1202 24.1706 54.5218C24.8733 54.8777 26.5342 54.7956 28.7154 54.2754C29.3359 54.1294 30.0934 54.0107 30.3946 54.0107C30.9421 54.0107 30.9604 54.0199 31.3254 54.4214C31.5536 54.6587 31.7909 54.8321 31.9004 54.8321C32.2107 54.8321 32.5301 54.3575 32.8404 53.4267C33.3879 51.784 33.3332 51.8022 36.719 51.7201C40.8257 51.6197 41.9573 51.4372 43.2076 50.6341C44.1841 50.0135 47.0771 49.4203 47.0771 49.8401C47.0771 50.0774 47.4421 50.3603 47.7433 50.3603C48.1175 50.3603 49.167 50.123 51.2021 49.6028C52.0965 49.3747 53.3011 49.1191 53.8943 49.0461C54.4875 48.964 56.3492 48.5898 58.0284 48.2157C59.7076 47.8324 61.7793 47.3852 62.6371 47.2027C63.4858 47.0293 64.3437 46.8011 64.5536 46.7007C64.7544 46.5912 65.2472 46.2353 65.6487 45.8976C66.0503 45.56 66.4427 45.2405 66.5248 45.1767C66.607 45.1128 66.9811 44.985 67.3553 44.8938C68.1949 44.6747 71.1335 43.5887 74.4554 42.2563C78.6261 40.5862 80.9076 39.628 86.292 37.2735L87.6883 36.662L88.5279 36.9814C90.49 37.7115 93.6385 38.2408 95.7649 38.1952L96.86 38.1769L97.7726 38.6515C98.2746 38.907 99.4153 39.5276 100.319 40.0295L101.943 40.933L102.947 42.6579C105.785 47.5403 107.191 50.4607 107.583 52.2768C107.884 53.6457 108.24 58.081 108.149 59.3221C108.122 59.7967 108.131 59.8514 108.295 59.8514C108.386 59.8514 108.578 59.7693 108.715 59.6598C109.116 59.3495 109.335 58.7928 109.399 57.9623C109.436 57.5517 109.509 57.1592 109.573 57.0954C109.746 56.922 110.394 57.2961 112.055 58.5282C113.679 59.7328 114.254 60.0705 114.519 59.9883C114.619 59.961 114.702 59.8788 114.702 59.8149C114.702 59.7511 114.263 59.1579 113.734 58.4917C113.196 57.8346 112.785 57.2688 112.803 57.2505C112.822 57.2231 113.141 57.4513 113.497 57.7524C113.853 58.0536 114.528 58.5647 115.003 58.8841C116.6 59.9701 117.093 59.9062 116.627 58.6742C116.536 58.4278 116.49 58.1905 116.536 58.1449C116.645 58.0353 116.262 57.2596 115.778 56.6117C115.559 56.3105 114.82 55.553 114.145 54.9233C111.736 52.6783 111.608 52.4593 110.002 47.7137C108.368 42.9043 107.647 41.2159 106.652 39.8926C105.977 39.0074 103.44 36.4521 99.9538 33.1576C98.1103 31.4054 96.7322 30.0273 96.422 29.6167C96.1299 29.2334 95.4181 28.485 94.834 27.9374C94.2408 27.399 93.4103 26.605 92.9814 26.1761C92.5525 25.7472 91.795 25.0353 91.2931 24.5882C90.1797 23.6117 88.9386 22.261 88.3545 21.394C88.1263 21.0472 87.7522 20.3445 87.5331 19.8426L87.1316 18.93L88.0442 16.8675C88.9842 14.7776 89.331 13.7007 89.331 12.9524C89.331 12.7242 89.2488 11.9941 89.1485 11.3462C89.0481 10.6891 88.902 9.73999 88.829 9.22893C88.6739 8.14292 88.4184 7.56798 87.8799 7.07517C87.4145 6.65537 87.159 6.5276 86.0182 6.13518C84.9048 5.74276 84.6219 5.60587 84.2934 5.29558C84.0835 5.10393 84.0378 5.08568 84.0378 5.21344C84.0378 5.5146 83.6637 5.57849 82.605 5.46898C81.2635 5.33208 80.6885 5.34121 79.5569 5.52373C78.6626 5.66062 78.5713 5.66062 78.2884 5.52373C77.896 5.32296 77.7408 5.33208 77.7408 5.54198C77.7408 5.95266 77.1567 6.37246 76.2989 6.59148C75.9521 6.67362 75.87 6.7375 75.8152 6.95653C75.7057 7.34895 75.8791 8.09729 76.1894 8.5901C76.3445 8.83651 76.4632 9.12854 76.4632 9.24718C76.4632 9.36582 76.2989 9.80387 76.0981 10.2237C75.6966 11.0541 75.5232 11.766 75.6418 12.0854C75.7513 12.3683 75.6692 12.6238 75.0121 13.938C74.7109 14.5586 74.4554 15.1426 74.4554 15.2248C74.4554 15.4347 74.6653 15.599 75.0304 15.672L75.3224 15.7358L75.368 16.4112C75.3954 16.8584 75.4684 17.1778 75.5779 17.3329C75.7331 17.5702 75.7331 17.5884 75.5414 17.9535C75.4137 18.1999 75.3315 18.5649 75.3041 19.0486C75.2403 19.9065 75.3041 20.1985 75.5779 20.3719C75.8882 20.5818 76.81 20.7004 77.3301 20.6001C77.5765 20.5544 77.8138 20.5544 77.8595 20.6001C77.9872 20.7278 76.81 21.7226 74.1543 23.7303L71.6172 25.6468L70.1844 25.948C68.2862 26.3586 67.2184 26.5412 66.7256 26.5412C65.7217 26.5412 64.3984 25.9936 63.0478 25.0262C62.5824 24.6886 62.0165 24.36 61.7975 24.2961C61.5785 24.2322 60.9214 24.1501 60.3282 24.1227C58.722 24.0406 58.0832 23.9128 56.9333 23.4657C55.9751 23.0824 55.7834 23.0459 54.743 22.9728C53.0273 22.8542 52.4159 22.7356 50.3169 22.1424C49.2674 21.8412 48.154 21.5401 47.8528 21.4762C47.1775 21.3119 44.0016 20.9286 42.368 20.8008C41.0447 20.6913 40.4515 20.5271 38.5624 19.7057C37.9692 19.4502 37.2574 19.1855 36.9836 19.1125C36.7098 19.0395 35.6056 18.5011 34.5287 17.917C33.4518 17.3329 32.2472 16.7397 31.8547 16.5937C30.5588 16.1191 25.8041 15.1609 22.8838 14.7776C22.0351 14.6681 21.2137 14.4947 20.8213 14.3578C20.2646 14.157 19.8995 14.1114 18.5398 14.0384C17.0887 13.9654 14.1045 13.646 13.7759 13.5365C13.6938 13.4999 13.7577 13.3813 13.995 13.1167C14.7524 12.2771 15.519 10.8351 15.811 9.68523C16.0209 8.90039 16.0848 7.63186 15.9662 6.81964C15.5281 3.68026 13.3014 1.11582 10.2806 0.257965C9.6418 0.0663185 7.69794 -0.0705719 7.24163 0.0389404Z" fill="url(#paint0_linear_3295_29049)"/>
<defs>
<linearGradient id="paint0_linear_3295_29049" x1="58.3973" y1="60" x2="58.3973" y2="0" gradientUnits="userSpaceOnUse">
<stop stop-color="#808080" stop-opacity="0"/>
<stop offset="1" stop-color="#808080"/>
</linearGradient>
</defs>
</svg>
