<svg width="266" height="300" viewBox="0 0 266 300" fill="none" xmlns="http://www.w3.org/2000/svg">
<path d="M41.4126 81.3125C28.1854 96.5888 18.5407 115.253 14.0612 136.327C9.58175 157.401 10.7975 178.393 16.6676 197.728L41.4126 81.3125Z" fill="url(#paint0_linear_2140_4503)"/>
<path d="M164.449 40.4785C154.356 38.333 144.304 37.4704 134.435 37.6893L130.344 56.935C140.206 56.2899 150.323 56.9347 160.492 59.0962C218.724 71.4738 256.106 127.777 243.971 184.868C238.506 210.578 223.903 232.049 204.214 246.763L187.349 278.601C224.682 263.507 253.966 231.103 262.867 189.231C277.208 121.664 233.151 55.0815 164.449 40.4785Z" fill="url(#paint1_linear_2140_4503)"/>
<path d="M95.6822 220.007L193.179 240.73C212.851 227.576 227.568 207.23 232.825 182.499C243.676 131.448 210.253 81.1015 158.168 70.0304C147.943 67.857 137.767 67.3928 127.914 68.3679L95.6822 220.007Z" fill="url(#paint2_linear_2140_4503)"/>
<path d="M127.452 15.0864L56.4759 0L64.0635 30.2027L19.2806 240.89L0.0683594 265.377L162.959 300L188.737 251.369L82.0486 228.691L127.452 15.0864Z" fill="url(#paint3_linear_2140_4503)"/>
<defs>
<linearGradient id="paint0_linear_2140_4503" x1="132.821" y1="0" x2="132.821" y2="300" gradientUnits="userSpaceOnUse">
<stop stop-color="#808080"/>
<stop offset="1" stop-color="#808080" stop-opacity="0"/>
</linearGradient>
<linearGradient id="paint1_linear_2140_4503" x1="132.821" y1="0" x2="132.821" y2="300" gradientUnits="userSpaceOnUse">
<stop stop-color="#808080"/>
<stop offset="1" stop-color="#808080" stop-opacity="0"/>
</linearGradient>
<linearGradient id="paint2_linear_2140_4503" x1="132.821" y1="0" x2="132.821" y2="300" gradientUnits="userSpaceOnUse">
<stop stop-color="#808080"/>
<stop offset="1" stop-color="#808080" stop-opacity="0"/>
</linearGradient>
<linearGradient id="paint3_linear_2140_4503" x1="132.821" y1="0" x2="132.821" y2="300" gradientUnits="userSpaceOnUse">
<stop stop-color="#808080"/>
<stop offset="1" stop-color="#808080" stop-opacity="0"/>
</linearGradient>
</defs>
</svg>
