<svg width="359" height="300" viewBox="0 0 359 300" fill="none" xmlns="http://www.w3.org/2000/svg">
<path d="M234.906 300H231.938C196.325 300 160.712 300 125.099 300C120.647 300 117.68 298.477 116.196 295.431C79.0988 246.7 40.5179 199.492 3.42088 150.761C1.937 147.716 0.453125 146.193 0.453125 143.147C0.453125 95.9391 0.453125 50.2538 0.453125 3.04568C0.453125 1.52284 0.453124 0 1.937 0H3.42088C80.5827 98.9848 157.744 197.97 233.422 296.954C233.422 296.954 233.422 298.477 234.906 298.477V300Z" fill="url(#paint0_linear_2137_4489)"/>
<path d="M353.617 150.761C343.23 164.467 331.359 178.173 320.972 193.401C318.004 196.447 315.037 197.97 312.069 197.97C276.456 197.97 240.843 197.97 206.713 197.97H205.229C203.745 197.97 202.262 196.447 203.746 194.924C203.746 194.924 203.745 193.401 205.229 193.401C240.843 147.716 274.972 103.553 310.585 57.868C325.424 39.5939 340.263 19.797 353.617 1.52284C353.617 -1.43051e-06 355.101 0 356.585 0H358.069C358.069 1.52284 358.069 1.52284 358.069 3.04568C358.069 48.731 358.069 95.9391 358.069 141.624C356.585 146.193 355.101 149.239 353.617 150.761Z" fill="url(#paint1_linear_2137_4489)"/>
<defs>
<linearGradient id="paint0_linear_2137_4489" x1="179.261" y1="0" x2="179.261" y2="300" gradientUnits="userSpaceOnUse">
<stop stop-color="#808080"/>
<stop offset="1" stop-color="#808080" stop-opacity="0"/>
</linearGradient>
<linearGradient id="paint1_linear_2137_4489" x1="179.261" y1="0" x2="179.261" y2="300" gradientUnits="userSpaceOnUse">
<stop stop-color="#808080"/>
<stop offset="1" stop-color="#808080" stop-opacity="0"/>
</linearGradient>
</defs>
</svg>
